<svg width="214" height="72" viewBox="0 0 214 72" fill="none" xmlns="http://www.w3.org/2000/svg">
<g clip-path="url(#clip0_2_9)">
<path d="M38.2149 72L-0.0763272 6H76.5061L38.2149 72Z" fill="#4D9AFF"/>
<path d="M37.7124 49L9.42914 0.249995L65.9957 0.249995L37.7124 49Z" fill="#0015FF"/>
<path d="M73.1705 56V29.8182H79.3409V56H73.1705ZM76.2727 26.1023C75.2955 26.1023 74.4545 25.7784 73.75 25.1307C73.0455 24.4716 72.6932 23.6818 72.6932 22.7614C72.6932 21.8295 73.0455 21.0398 73.75 20.392C74.4545 19.733 75.2955 19.4034 76.2727 19.4034C77.2614 19.4034 78.1023 19.733 78.7955 20.392C79.5 21.0398 79.8523 21.8295 79.8523 22.7614C79.8523 23.6818 79.5 24.4716 78.7955 25.1307C78.1023 25.7784 77.2614 26.1023 76.2727 26.1023ZM95.402 56.4602C93.3452 56.4602 91.5043 55.9318 89.8793 54.875C88.2543 53.8182 86.9702 52.2841 86.027 50.2727C85.0838 48.2614 84.6122 45.8182 84.6122 42.9432C84.6122 40.0341 85.0895 37.5795 86.044 35.5795C87.0099 33.5682 88.3111 32.0511 89.9474 31.0284C91.5838 29.9943 93.4077 29.4773 95.419 29.4773C96.9531 29.4773 98.2145 29.7386 99.2031 30.2614C100.192 30.7727 100.976 31.392 101.555 32.1193C102.135 32.8352 102.584 33.5114 102.902 34.1477H103.158V21.0909H109.345V56H103.277V51.875H102.902C102.584 52.5114 102.124 53.1875 101.521 53.9034C100.919 54.608 100.124 55.2102 99.1349 55.7102C98.1463 56.2102 96.902 56.4602 95.402 56.4602ZM97.1236 51.3977C98.4304 51.3977 99.544 51.0455 100.464 50.3409C101.385 49.625 102.084 48.6307 102.561 47.358C103.038 46.0852 103.277 44.6023 103.277 42.9091C103.277 41.2159 103.038 39.7443 102.561 38.4943C102.095 37.2443 101.402 36.2727 100.482 35.5795C99.5724 34.8864 98.4531 34.5398 97.1236 34.5398C95.7486 34.5398 94.6009 34.8977 93.6804 35.6136C92.7599 36.3295 92.0668 37.3182 91.6009 38.5795C91.1349 39.8409 90.902 41.2841 90.902 42.9091C90.902 44.5455 91.1349 46.0057 91.6009 47.2898C92.0781 48.5625 92.777 49.5682 93.6974 50.3068C94.6293 51.0341 95.7713 51.3977 97.1236 51.3977ZM115.58 56V52.0795L129.08 35.1534V34.9318H116.023V29.8182H136.631V34.0284L123.778 50.6648V50.8864H137.074V56H115.58ZM153.544 56.5114C150.987 56.5114 148.771 55.9489 146.896 54.8239C145.021 53.6989 143.567 52.125 142.533 50.1023C141.51 48.0795 140.999 45.7159 140.999 43.0114C140.999 40.3068 141.51 37.9375 142.533 35.9034C143.567 33.8693 145.021 32.2898 146.896 31.1648C148.771 30.0398 150.987 29.4773 153.544 29.4773C156.101 29.4773 158.317 30.0398 160.192 31.1648C162.067 32.2898 163.516 33.8693 164.538 35.9034C165.572 37.9375 166.089 40.3068 166.089 43.0114C166.089 45.7159 165.572 48.0795 164.538 50.1023C163.516 52.125 162.067 53.6989 160.192 54.8239C158.317 55.9489 156.101 56.5114 153.544 56.5114ZM153.578 51.5682C154.964 51.5682 156.124 51.1875 157.055 50.4261C157.987 49.6534 158.68 48.6193 159.135 47.3239C159.601 46.0284 159.834 44.5852 159.834 42.9943C159.834 41.392 159.601 39.9432 159.135 38.6477C158.68 37.3409 157.987 36.3011 157.055 35.5284C156.124 34.7557 154.964 34.3693 153.578 34.3693C152.158 34.3693 150.976 34.7557 150.033 35.5284C149.101 36.3011 148.402 37.3409 147.936 38.6477C147.482 39.9432 147.254 41.392 147.254 42.9943C147.254 44.5852 147.482 46.0284 147.936 47.3239C148.402 48.6193 149.101 49.6534 150.033 50.4261C150.976 51.1875 152.158 51.5682 153.578 51.5682ZM171.327 56V29.8182H177.31V34.1818H177.582C178.06 32.6705 178.878 31.5057 180.037 30.6875C181.207 29.858 182.543 29.4432 184.043 29.4432C184.384 29.4432 184.764 29.4602 185.185 29.4943C185.616 29.517 185.974 29.5568 186.259 29.6136V35.2898C185.997 35.1989 185.582 35.1193 185.014 35.0511C184.457 34.9716 183.918 34.9318 183.395 34.9318C182.27 34.9318 181.259 35.1761 180.361 35.6648C179.474 36.142 178.776 36.8068 178.264 37.6591C177.753 38.5114 177.497 39.4943 177.497 40.608V56H171.327ZM197.423 56.5284C195.764 56.5284 194.27 56.233 192.94 55.642C191.622 55.0398 190.577 54.1534 189.804 52.983C189.043 51.8125 188.662 50.3693 188.662 48.6534C188.662 47.1761 188.935 45.9545 189.48 44.9886C190.026 44.0227 190.77 43.25 191.713 42.6705C192.656 42.0909 193.719 41.6534 194.901 41.358C196.094 41.0511 197.327 40.8295 198.599 40.6932C200.134 40.5341 201.378 40.392 202.332 40.267C203.287 40.1307 203.98 39.9261 204.412 39.6534C204.855 39.3693 205.077 38.9318 205.077 38.3409V38.2386C205.077 36.9545 204.696 35.9602 203.935 35.2557C203.173 34.5511 202.077 34.1989 200.645 34.1989C199.134 34.1989 197.935 34.5284 197.048 35.1875C196.173 35.8466 195.582 36.625 195.276 37.5227L189.514 36.7045C189.969 35.1136 190.719 33.7841 191.764 32.7159C192.81 31.6364 194.088 30.8295 195.599 30.2955C197.111 29.75 198.781 29.4773 200.611 29.4773C201.872 29.4773 203.128 29.625 204.378 29.9205C205.628 30.2159 206.77 30.7045 207.804 31.3864C208.838 32.0568 209.668 32.9716 210.293 34.1307C210.929 35.2898 211.247 36.7386 211.247 38.4773V56H205.315V52.4034H205.111C204.736 53.1307 204.207 53.8125 203.526 54.4489C202.855 55.0739 202.009 55.5795 200.986 55.9659C199.974 56.3409 198.787 56.5284 197.423 56.5284ZM199.026 51.9943C200.264 51.9943 201.338 51.75 202.247 51.2614C203.156 50.7614 203.855 50.1023 204.344 49.2841C204.844 48.4659 205.094 47.5739 205.094 46.608V43.5227C204.901 43.6818 204.571 43.8295 204.105 43.9659C203.651 44.1023 203.139 44.2216 202.571 44.3239C202.003 44.4261 201.44 44.517 200.884 44.5966C200.327 44.6761 199.844 44.7443 199.435 44.8011C198.514 44.9261 197.69 45.1307 196.963 45.4148C196.236 45.6989 195.662 46.0966 195.241 46.608C194.821 47.108 194.611 47.7557 194.611 48.5511C194.611 49.6875 195.026 50.5455 195.855 51.125C196.685 51.7045 197.741 51.9943 199.026 51.9943Z" fill="url(#paint0_linear_2_9)"/>
</g>
<defs>
<linearGradient id="paint0_linear_2_9" x1="162.5" y1="10" x2="162.5" y2="72" gradientUnits="userSpaceOnUse">
<stop stop-color="white"/>
<stop offset="1" stop-color="#80C1FF"/>
</linearGradient>
<clipPath id="clip0_2_9">
<rect width="214" height="72" fill="white"/>
</clipPath>
</defs>
</svg>
